<svg xmlns="http://www.w3.org/2000/svg" viewBox="0 0 2400 2400"><defs><style>.cls-1{fill:#fff;}</style></defs><g id="Ebene_2" data-name="Ebene 2"><g id="Ebene_4" data-name="Ebene 4"><polygon class="cls-1" points="1199.04 1384.4 1638.88 1208.97 1199.04 1042.31 1199.04 1384.4"/><polygon class="cls-1" points="1199.04 1825.4 1770.24 1608.7 1770.24 1321.85 1199.04 1539.8 1199.04 1825.4"/><polygon class="cls-1" points="758.4 1716.53 1057.92 1825.56 1057.92 713.95 758.4 602.41 758.4 1716.53"/><path class="cls-1" d="M1200,0C537.26,0,0,537.26,0,1200S537.26,2400,1200,2400s1200-537.26,1200-1200S1862.74,0,1200,0Zm721,1713.93L1125,2014.75l-516.4-198V385.64L1199,613.78V891.91L1921,1160.12Z"/></g></g></svg>